HIERARCHY
ROOT Pelvis
{
	OFFSET 0.000000 0.941512 0.000000
	CHANNELS 6 Xposition Yposition Zposition Zrotation Yrotation Xrotation 
	JOINT Pelvis_L_Hip
	{
		OFFSET 0.000000 0.000000 0.000000
		CHANNELS 3 Zrotation Yrotation Xrotation
		JOINT L_Hip
		{
			OFFSET 0.062321 -0.080322 -0.016990
			CHANNELS 3 Zrotation Yrotation Xrotation
			JOINT L_Knee
			{
				OFFSET 0.093051 -0.381305 -0.029784
				CHANNELS 3 Zrotation Yrotation Xrotation
				JOINT L_Ankle
				{
					OFFSET -0.010371 -0.431000 -0.033614
					CHANNELS 3 Zrotation Yrotation Xrotation
					End Site #name: L_Foot
					{
						OFFSET 0.069299 -0.038670 0.119418
					}
				}
			}
		}
	}
	JOINT Pelvis_R_Hip
	{
		OFFSET 0.000000 0.000000 0.000000
		CHANNELS 3 Zrotation Yrotation Xrotation
		JOINT R_Hip
		{
			OFFSET -0.055334 -0.094904 -0.002373
			CHANNELS 3 Zrotation Yrotation Xrotation
			JOINT R_Knee
			{
				OFFSET -0.064207 -0.384370 -0.019592
				CHANNELS 3 Zrotation Yrotation Xrotation
				JOINT R_Ankle
				{
					OFFSET 0.025418 -0.419734 -0.065953
					CHANNELS 3 Zrotation Yrotation Xrotation
					End Site #name: R_Foot
					{
						OFFSET -0.057233 -0.039888 0.132134
					}
				}
			}
		}
	}
	JOINT Pelvis_Spine1
	{
		OFFSET 0.000000 0.000000 0.000000
		CHANNELS 3 Zrotation Yrotation Xrotation
		JOINT Spine1
		{
			OFFSET -0.005562 0.124093 -0.043360
			CHANNELS 3 Zrotation Yrotation Xrotation
			JOINT Spine2
			{
				OFFSET 0.012244 0.139499 0.029894
				CHANNELS 3 Zrotation Yrotation Xrotation
				JOINT Spine3
				{
					OFFSET -0.002556 0.056561 0.009225
					CHANNELS 3 Zrotation Yrotation Xrotation
					JOINT Spine3_Neck
					{
						OFFSET 0.000000 0.000000 0.000000
						CHANNELS 3 Zrotation Yrotation Xrotation
						JOINT Neck
						{
							OFFSET -0.005205 0.217920 -0.024551
							CHANNELS 3 Zrotation Yrotation Xrotation
							End Site #name: Head
							{
								OFFSET 0.002365 0.091850 0.046637
							}
						}
					}
					JOINT Spine3_L_Collar
					{
						OFFSET 0.000000 0.000000 0.000000
						CHANNELS 3 Zrotation Yrotation Xrotation
						JOINT L_Collar
						{
							OFFSET 0.072225 0.116603 -0.009480
							CHANNELS 3 Zrotation Yrotation Xrotation
							JOINT L_Shoulder
							{
								OFFSET 0.115937 -0.058643 -0.021018
								CHANNELS 3 Zrotation Yrotation Xrotation
								JOINT L_Elbow
								{
									OFFSET 0.021994 -0.254722 -0.024492
									CHANNELS 3 Zrotation Yrotation Xrotation
									End Site #name: L_Wrist
									{
										OFFSET 0.048810 -0.240214 0.103329
									}
								}
							}
						}
					}
					JOINT Spine3_R_Collar
					{
						OFFSET 0.000000 0.000000 0.000000
						CHANNELS 3 Zrotation Yrotation Xrotation
						JOINT R_Collar
						{
							OFFSET -0.073372 0.120704 -0.024611
							CHANNELS 3 Zrotation Yrotation Xrotation
							JOINT R_Shoulder
							{
								OFFSET -0.108089 -0.054969 -0.020504
								CHANNELS 3 Zrotation Yrotation Xrotation
								JOINT R_Elbow
								{
									OFFSET -0.033684 -0.260739 0.009889
									CHANNELS 3 Zrotation Yrotation Xrotation
									End Site #name: R_Wrist
									{
										OFFSET -0.067980 -0.232763 0.118463
									}
								}
							}
						}
					}
				}
			}
		}
	}
}
MOTION
Frames: 8
Frame Time: 0.041667
-0.922937 1.001944 -0.904783 0.135043 14.141462 -0.075664 0.000000 0.000000 0.000000 -3.097958 2.997051 10.980821 17.591394 4.086618 -40.517512 62.966567 48.740046 138.583459 0.000000 0.000000 0.000000 8.850539 0.606867 -4.166028 5.313187 -1.784983 -24.760394 -81.449693 -54.884145 114.609772 0.000000 0.000000 0.000000 22.832074 2.305434 -27.997963 -9.381952 2.303129 6.252718 -2.575945 17.317513 24.434459 0.000000 0.000000 0.000000 13.759956 -1.719908 -62.485600 0.000000 0.000000 0.000000 27.822950 -5.411087 6.870324 -12.576691 -3.635161 -29.264450 -75.459304 25.057568 59.926040 0.000000 0.000000 0.000000 -28.403624 20.752085 -18.103883 8.954779 0.358772 -1.875967 82.312948 -16.773709 51.928246 
-0.917340 0.996920 -0.897212 1.329950 13.384551 0.701467 0.000000 0.000000 0.000000 -3.569751 2.931702 10.264179 15.999475 3.907280 -41.881688 71.404339 48.180806 140.229849 0.000000 0.000000 0.000000 6.405594 0.178725 -2.079612 7.226861 -1.862823 -28.823816 -76.906779 -53.480694 116.108698 0.000000 0.000000 0.000000 19.481950 2.742498 -29.808391 -7.560394 2.283653 9.862433 -2.423578 16.551636 21.520515 0.000000 0.000000 0.000000 12.220624 -1.553403 -60.974597 0.000000 0.000000 0.000000 27.601778 -8.658556 3.552959 -13.033290 -3.631531 -28.054365 -73.116471 23.693281 59.427905 0.000000 0.000000 0.000000 -27.592815 17.631945 -14.574684 9.537494 0.921725 -4.333087 76.975612 -18.775129 54.164780 
-0.914528 1.005453 -0.900604 3.777212 12.094285 -0.508988 0.000000 0.000000 0.000000 -3.939489 1.954020 6.102768 11.800041 2.444057 -35.330342 67.000610 48.252838 140.558155 0.000000 0.000000 0.000000 4.760814 -0.058541 -0.659996 3.709279 -1.984017 -28.219308 -79.080017 -50.490398 125.378475 0.000000 0.000000 0.000000 13.812366 1.885117 -24.831293 -2.412232 0.484132 1.126243 -1.691545 15.922790 29.621905 0.000000 0.000000 0.000000 2.559987 -1.718527 -61.830608 0.000000 0.000000 0.000000 26.728503 -14.013425 -2.002755 -15.867408 -3.639833 -27.198973 -90.017776 17.313044 50.892200 0.000000 0.000000 0.000000 -30.952353 17.159802 -14.766974 12.797888 1.811477 -7.893452 82.057958 -21.661466 55.981099 
-0.903848 1.020423 -0.901540 4.761759 9.965287 -1.664924 0.000000 0.000000 0.000000 -4.289574 0.775001 1.566756 10.698218 1.790247 -27.012514 63.645547 50.212331 135.070822 0.000000 0.000000 0.000000 5.173613 -0.068512 -0.661256 -0.375716 -1.946972 -25.768808 -75.854458 -48.978237 128.185758 0.000000 0.000000 0.000000 11.267802 1.816929 -23.802009 -1.479805 0.324197 1.254805 -0.650769 14.670944 30.427945 0.000000 0.000000 0.000000 -2.230239 -1.572460 -61.489867 0.000000 0.000000 0.000000 26.907011 -15.075685 -3.524152 -15.243341 -3.700465 -27.996783 -88.685935 18.557128 51.920337 0.000000 0.000000 0.000000 -33.427361 17.542609 -15.111319 16.227116 2.011066 -7.609073 87.756766 -19.845925 54.445917 
-0.892729 1.025519 -0.899061 5.303710 8.842216 -4.367809 0.000000 0.000000 0.000000 -3.927015 0.414705 0.462026 7.947454 1.011001 -20.256102 54.561080 51.359432 130.775751 0.000000 0.000000 0.000000 4.393135 -0.680257 2.486693 -1.078149 -1.893666 -25.362601 -69.934626 -48.190133 128.562209 0.000000 0.000000 0.000000 9.598542 1.473843 -21.013492 -0.908504 0.232964 1.476592 0.635474 13.874846 29.525672 0.000000 0.000000 0.000000 -4.219639 -1.300955 -60.133494 0.000000 0.000000 0.000000 27.580014 -15.752718 -4.358979 -15.783073 -3.891620 -28.568914 -90.306248 17.972239 51.346829 0.000000 0.000000 0.000000 -35.400123 16.974901 -14.557272 17.221773 2.071686 -7.251356 90.630194 -18.125141 53.311112 
-0.875763 1.024861 -0.885950 5.050898 7.683680 -2.539509 0.000000 0.000000 0.000000 -5.435360 0.185292 -0.775329 7.361702 0.950343 -19.628448 64.575856 52.661343 127.412468 0.000000 0.000000 0.000000 2.827429 -0.806477 3.527785 1.122121 -2.034178 -29.443312 -67.815017 -47.857718 128.434791 0.000000 0.000000 0.000000 8.243584 2.629474 -29.433045 1.097929 0.131848 10.168854 -1.730708 13.740741 24.543346 0.000000 0.000000 0.000000 0.547861 -1.034976 -61.024823 0.000000 0.000000 0.000000 27.897154 -14.698012 -3.574036 -19.188856 -3.486555 -24.552832 -81.878580 19.043744 53.648183 0.000000 0.000000 0.000000 -32.716098 15.485407 -11.998429 17.728933 1.629694 -5.344224 88.202733 -18.908024 54.080524 
-0.864235 1.013780 -0.874708 3.652590 6.957544 -0.862096 0.000000 0.000000 0.000000 -4.962109 0.139685 -0.896160 9.015329 1.302143 -21.844442 74.747360 49.821395 137.986388 0.000000 0.000000 0.000000 2.324074 -0.867105 3.958118 5.610676 -1.682943 -31.890108 -72.640972 -51.995641 116.703691 0.000000 0.000000 0.000000 8.773732 3.179581 -33.220063 -2.114088 1.262457 15.570565 -2.654424 13.848037 14.652568 0.000000 0.000000 0.000000 21.193122 -0.912686 -55.639453 0.000000 0.000000 0.000000 27.997759 -14.115524 -3.053357 -18.226875 -1.305603 -14.321766 -79.200794 17.529170 52.815927 0.000000 0.000000 0.000000 -26.856568 16.902416 -12.181807 17.843080 0.335117 -0.447635 81.853064 -19.241518 54.940285 
-0.860114 1.015868 -0.872602 3.540985 8.042661 -1.876561 0.000000 0.000000 0.000000 -5.756175 0.066434 -1.303865 10.030439 1.211019 -19.954111 75.737724 47.985042 142.106587 0.000000 0.000000 0.000000 1.492684 -0.941962 4.707580 10.035666 -1.268416 -29.786312 -73.739595 -57.615412 100.558971 0.000000 0.000000 0.000000 8.076263 2.669226 -29.953962 -0.141998 0.476327 10.847105 -2.378988 14.040843 16.698034 0.000000 0.000000 0.000000 24.191236 -1.006139 -57.226932 0.000000 0.000000 0.000000 27.634913 -12.104658 -1.001723 -14.740221 -2.143694 -18.786828 -86.919851 17.232869 51.345469 0.000000 0.000000 0.000000 -28.789141 21.093427 -16.770017 18.555143 0.355666 -0.639275 86.840758 -18.232847 53.791199 
